<?xml version="1.0" encoding="UTF-8"?>
<svg id="_レイヤー_2" data-name="レイヤー 2" xmlns="http://www.w3.org/2000/svg" viewBox="0 0 82.51 83">
  <defs>
    <style>
      .cls-1 {
        fill: #040000;
      }
    </style>
  </defs>
  <g id="_レイヤー_1-2" data-name="レイヤー 1">
    <g>
      <path class="cls-1" d="M51.71,0h-23.21C6.7,0,0,12.2,0,25.9v3c0,1.13.05,2.24.17,3.33.12,1.34.33,2.65.63,3.92v.04c.08.29.16.58.24.86.02.1.05.19.08.28.1.36.21.72.34,1.07.03.1.07.21.11.31.13.36.27.72.42,1.08.12.29.24.57.38.85.1.22.2.44.32.65.09.19.19.38.3.56.08.15.16.3.26.45.15.27.31.53.48.79.14.23.29.45.46.67.14.21.29.41.45.61.1.13.2.26.3.38.01.01.01.02.02.03.15.19.31.37.47.55.58.67,1.22,1.3,1.91,1.89.14.13.29.25.44.37.23.19.47.38.72.56.13.1.27.2.41.29.15.12.3.22.46.32.18.13.36.25.55.35,1.44.92,3.06,1.7,4.88,2.34l3.57.18.97,1.04c.33.07.67.14,1.02.19t.02,0c.33.06.66.11,1,.16t.02,0c.34.06.69.1,1.05.14.94.11,1.91.2,2.92.25.48.03.98.05,1.48.07.54,0,1.09.02,1.65.02h1.98l.07-.92c1.8-.42,5.26-2.77,6.98-2.39.8.17,2.57,1.92,4.13,3.31h3.35c2.5,0,5-.2,7.5-.5v.2c0,2.7-1.3,5.5-5.1,5.5h-2.94c1.38,1.07,2.69,2.35,4.21,3.23l-.25,1.81-.78.26-9.96-1.78-.92,3.81c.23.74,4.76,1.62,5.19,2.37.12.21.1,1.66.05,2-.04.33.14.4-.36.36l-10.97-1.26c-.73-.27-.3-1.68-.41-2.35l-14.73,1.44-5.16-4.66-5.88-1.09v20.16h50.01c19.3,0,28-12.9,28-27.3v-28.3c0-16.3-10-27.4-30.8-27.4ZM59,30.04c-.08.17-.24.24-.26.43-.01.1.02.48.07.55.13.1.43.06.49.24.11.32-.2.44-.46.46-.71.07-1.54-.03-2.26-.02l-.23-.4c.12-.03.45-.2.5-.29.04-.05.08-.31.06-.37-.02-.08-.72-.59-.82-.6l-2.57.45c-.02.26-.29.32-.46.46-.07.06-.09.16-.18.21-.29.2-.63-.16-.83-.3-.07.12-.15.23-.25.34,0,.12-.02.24-.06.36-.13.35-.6.62-.72.93-.07.18-.03.55-.12.62-.06.05-.2.05-.23.11-.05.08-.05.39-.06.5-.12.02-.06-.03-.08-.09-.02-.08-.05-.43-.13-.45l-.16.04c-.03-.12-.02-.48-.19-.5-.07-.01-.07.1-.16.15-.09.04-.24.06-.34.08-.04,0,.02-.13-.11-.15-.06,0-.46.03-.54.04-.15.02-.26.16-.43,0-.19.11-.05.54-.23.57l-2.88-.14c-.19.08-.14.29-.2.45-.08.19-.3.26-.49.32-.12.04-.34.05-.41.09-.11.05-.07.19-.08.21-.03.02-.28-.04-.33.03-.02.25.16.61-.21.66-.05.08.08.2.07.21,0,.01-.19.17-.2.17-.12.03-.43,0-.52-.08-.03-.04-.03-.11-.06-.15-.26-.29-1.05-.09-1.39-.07-.25.01-.87,0-1.12-.04-.15-.03-.33-.18-.52-.16,0-.1.02-.21-.09-.25-.33.06-.77-.21-.87.24l-.35-.06c.21-.31-.06-.41-.14-.61-.07-.18-.03-.4-.07-.59-.24-.17-.27.04-.39.07-.37.12-.26-.2-.42-.33-.08-.08-.19-.08-.29-.14-.21-.14-.25-.35-.6-.4-.13-.02-.78-.02-.85.05-.13.16.06.77-.15.83-.17.04-.15-.1-.22-.15-.1-.08-.89-.03-1.09-.04-.15,0-.35-.1-.49,0-.07.05-.08.26-.26.18-.14-.08-.02-.53-.13-.72-.06-.1-.3-.18-.35-.34-.04-.12-.07-.33-.06-.55h-.18c-1.16,0-2.28-.43-2.79-1.56-.11-.03-.23-.05-.32-.05-.17,0-.26.13-.42.12-.16,0-.25-.16-.4-.19-.37-.07-1.04.17-1.14.57-.13.48.51.5.55.64.01.09-.17.39-.23.42-.1.05-1.27.03-1.48.02-.31-.01-.64-.08-.95-.04l-.18-.42c.23-.07.71.02.9-.08.33-.19-.13-.24-.15-.27-.09-.1-.11-.5-.21-.68-.1-.17-.28-.23-.39-.38-.16-.2-.12-.35-.35-.57-.61-.61-1.53-1.12-2.12-1.73-.35-.38-.26-.59-.21-1.06.09-.2.89-.5,1.12-.58.39-.13,1.06-.21,1.38-.35.07-.04.11-.12.17-.14s.28,0,.31-.05c.02-.04,0-.13.02-.2.02-.07.15-.18.19-.27.03-.06.16-.43.17-.48.12-.58-.29-.9.61-.85,1.21.07,2.56.48,3.77.54.35.01.38-.08.62-.12.1-.01.4-.02.47.04.06.05.04.18.18.24.18.08.38.02.55-.04.17-.06.44-.28.58-.31.23-.05.49.08.68.02.1-.02.13-.16.2-.22.21-.18.83-.31,1.11-.31.1-.08.09-.19.18-.29.06-.06.4-.28.48-.28s.21.06.31.07c.23.03.44-.01.65,0,.76.04.46.26.57.75.06.25.38.18.59.18.25-.01.55-.07.81-.08.26-.02.59.04.84,0,.29-.05.87-.78,1.06-1.03.22-.29.61-.57.96-.77.61-.36.42-.06.68.22.07.07.17.08.25.14.17.12.16.25.25.36.04.04.21.14.21.18v.84l.07.05c.48-.01.97-.06,1.46-.03.22.01.46.09.65.11.23.02,1.42.14,1.52.07.11-.2,0-.45,0-.66,0-.33.16-.64.11-.99-.02-.14-.24-.56-.01-.6.23-.05.45-.02.63.13.65.52,1.23,1.29,1.89,1.81.09.04.39.1.48.09.11-.01.18-.12.28-.14.12-.03.25,0,.37-.02.34-.07.71-.23,1.06-.29.3-.05.55-.03.85,0l.16.67c.57.34,1.37,1.25,2.02,1.36,1.33.21,2.67.39,3.98.72.19.05.74.48.8.66.02.07.06.3.06.37,0,.34-.23.51-.27.81-.06.5.12,1.46-.09,1.87Z"/>
      <path class="cls-1" d="M33.66,30.78c.28.03.37.19.09.32-.17.08-.34.03-.49.2-.13.14-.18.48-.18.8h-.18c-1.16,0-2.28-.43-2.79-1.56.08,0,.15.03.22.03.65.04,1.28.1,1.93.15.44.04.97,0,1.4.06Z"/>
      <path class="cls-1" d="M52.05,30.86c-.07.12-.15.23-.25.34.02-.14.04-.28.1-.4.04,0,.08.02.15.06Z"/>
    </g>
    <path class="cls-1" d="M28.5,53.5h1.98l-.33,4.55-6.3-.53-4.51-4.85c.33.07.67.14,1.02.19t.02,0c.33.06.66.12,1,.16t.02,0c.34.06.69.1,1.05.14.94.11,1.91.2,2.92.25.48.03.98.05,1.48.07.54,0,1.09.02,1.65.02Z"/>
    <path class="cls-1" d="M52.51,53v.2c0,2.7-1.3,5.5-5.1,5.5h-2.94c-1.73-1.34-3.56-2.35-6.05-1.85.09-.25,1.23-.87,1.35-.89.8-.14,3.01.68,4.01.63.58-.16.5-1.15.04-1.42-.53-.25-1.31-.9-2.16-1.67h3.35c2.5,0,5-.2,7.5-.5Z"/>
  </g>
</svg>