<?xml version="1.0" encoding="UTF-8"?>
<svg id="_レイヤー_2" data-name="レイヤー 2" xmlns="http://www.w3.org/2000/svg" viewBox="0 0 97.7 68.8">
  <defs>
    <style>
      .cls-1 {
        fill: #000041;
      }
    </style>
  </defs>
  <g id="_レイヤー_1-2" data-name="レイヤー 1">
    <g>
      <path class="cls-1" d="M61.9,32.5c-2.27,3.4-5.57,5.9-9.9,7.5l15.3,28.8h-24.8l-12.2-25.1h-8.2v25.1H0V0h42.1c4.93,0,9.15.95,12.65,2.85,3.5,1.9,6.13,4.47,7.9,7.7,1.77,3.23,2.65,6.75,2.65,10.55,0,4.2-1.13,8-3.4,11.4ZM41,17.5c-1.2-1.2-2.67-1.8-4.4-1.8h-14.5v12.7h14.5c1.73,0,3.2-.62,4.4-1.85,1.2-1.23,1.8-2.75,1.8-4.55s-.6-3.3-1.8-4.5Z"/>
      <path class="cls-1" d="M76.5,68.8v-19.9h21.2v19.9h-21.2Z"/>
    </g>
  </g>
</svg>